<?xml version="1.0" encoding="UTF-8" standalone="no"?>
<!-- Created with Inkscape (http://www.inkscape.org/) -->

<svg
   xmlns:dc="http://purl.org/dc/elements/1.1/"
   xmlns:cc="http://creativecommons.org/ns#"
   xmlns:rdf="http://www.w3.org/1999/02/22-rdf-syntax-ns#"
   xmlns:svg="http://www.w3.org/2000/svg"
   xmlns="http://www.w3.org/2000/svg"
   xmlns:sodipodi="http://sodipodi.sourceforge.net/DTD/sodipodi-0.dtd"
   xmlns:inkscape="http://www.inkscape.org/namespaces/inkscape"
   width="100"
   height="100"
   viewBox="0 0 26.458333 26.458334"
   id="svg2"
   version="1.1"
   inkscape:version="0.91+devel r"
   sodipodi:docname="master.svg">
  <defs
     id="defs4">
    <filter
       style="color-interpolation-filters:sRGB;"
       inkscape:label="Pixellize"
       id="filter5734"
       inkscape:menu="Pixel tools"
       inkscape:menu-tooltip="Reduce or remove antialiasing around shapes">
      <feColorMatrix
         in="SourceGraphic"
         type="hueRotate"
         values="280"
         result="colormatrix1"
         id="feColorMatrix5736" />
      <feColorMatrix
         type="matrix"
         values="0.5 0 0.5 0 0 0 1 0 0 0 0.5 0 0.5 0 0 0 0 0 1 0 "
         result="colormatrix2"
         id="feColorMatrix5738" />
      <feColorMatrix
         type="hueRotate"
         values="100"
         result="colormatrix3"
         id="feColorMatrix5740" />
      <feBlend
         in2="colormatrix3"
         mode="normal"
         result="blend1"
         id="feBlend5742" />
      <feColorMatrix
         type="matrix"
         values="2.5 -0.75 -0.75 0 0 -0.75 2.5 -0.75 0 0 -0.75 -0.75 2.5 0 0 0 0 0 1 0 "
         result="colormatrix4"
         id="feColorMatrix5744" />
      <feComposite
         in="colormatrix4"
         in2="blend1"
         operator="arithmetic"
         k2="0"
         result="composite1"
         id="feComposite5746" />
      <feBlend
         in2="blend1"
         mode="normal"
         result="fbSourceGraphic"
         id="feBlend5748" />
      <feColorMatrix
         result="fbSourceGraphicAlpha"
         in="fbSourceGraphic"
         values="0 0 0 -1 0 0 0 0 -1 0 0 0 0 -1 0 0 0 0 1 0"
         id="feColorMatrix5766" />
      <feColorMatrix
         id="feColorMatrix5768"
         in="fbSourceGraphic"
         type="hueRotate"
         values="280"
         result="colormatrix1" />
      <feColorMatrix
         id="feColorMatrix5770"
         type="matrix"
         values="0.5 0 0.5 0 0 0 1 0 0 0 0.5 0 0.5 0 0 0 0 0 1 0 "
         result="colormatrix2" />
      <feColorMatrix
         id="feColorMatrix5772"
         type="hueRotate"
         values="100"
         result="colormatrix3" />
      <feBlend
         id="feBlend5774"
         in2="colormatrix3"
         mode="normal"
         result="blend1" />
      <feColorMatrix
         id="feColorMatrix5776"
         type="matrix"
         values="2.5 -0.75 -0.75 0 0 -0.75 2.5 -0.75 0 0 -0.75 -0.75 2.5 0 0 0 0 0 1 0 "
         result="colormatrix4" />
      <feComposite
         id="feComposite5778"
         in2="blend1"
         in="colormatrix4"
         operator="arithmetic"
         k2="0"
         result="composite1" />
      <feBlend
         id="feBlend5780"
         in2="blend1"
         mode="normal"
         result="fbSourceGraphic" />
      <feColorMatrix
         result="fbSourceGraphicAlpha"
         in="fbSourceGraphic"
         values="0 0 0 -1 0 0 0 0 -1 0 0 0 0 -1 0 0 0 0 1 0"
         id="feColorMatrix5810" />
      <feColorMatrix
         id="feColorMatrix5812"
         values="1 0 0 0 0 0 1 0 0 0 0 0 1 0 0 0 0 0 1000 -500 "
         in="fbSourceGraphic" />
    </filter>
    <filter
       style="color-interpolation-filters:sRGB;"
       inkscape:label="Pixellize"
       id="filter5750"
       inkscape:menu="Pixel tools"
       inkscape:menu-tooltip="Reduce or remove antialiasing around shapes">
      <feColorMatrix
         in="SourceGraphic"
         type="hueRotate"
         values="280"
         result="colormatrix1"
         id="feColorMatrix5752" />
      <feColorMatrix
         type="matrix"
         values="0.5 0 0.5 0 0 0 1 0 0 0 0.5 0 0.5 0 0 0 0 0 1 0 "
         result="colormatrix2"
         id="feColorMatrix5754" />
      <feColorMatrix
         type="hueRotate"
         values="100"
         result="colormatrix3"
         id="feColorMatrix5756" />
      <feBlend
         in2="colormatrix3"
         mode="normal"
         result="blend1"
         id="feBlend5758" />
      <feColorMatrix
         type="matrix"
         values="2.5 -0.75 -0.75 0 0 -0.75 2.5 -0.75 0 0 -0.75 -0.75 2.5 0 0 0 0 0 1 0 "
         result="colormatrix4"
         id="feColorMatrix5760" />
      <feComposite
         in="colormatrix4"
         in2="blend1"
         operator="arithmetic"
         k2="0"
         result="composite1"
         id="feComposite5762" />
      <feBlend
         in2="blend1"
         mode="normal"
         result="fbSourceGraphic"
         id="feBlend5764" />
      <feColorMatrix
         result="fbSourceGraphicAlpha"
         in="fbSourceGraphic"
         values="0 0 0 -1 0 0 0 0 -1 0 0 0 0 -1 0 0 0 0 1 0"
         id="feColorMatrix5782" />
      <feColorMatrix
         id="feColorMatrix5784"
         in="fbSourceGraphic"
         type="hueRotate"
         values="280"
         result="colormatrix1" />
      <feColorMatrix
         id="feColorMatrix5786"
         type="matrix"
         values="0.5 0 0.5 0 0 0 1 0 0 0 0.5 0 0.5 0 0 0 0 0 1 0 "
         result="colormatrix2" />
      <feColorMatrix
         id="feColorMatrix5788"
         type="hueRotate"
         values="100"
         result="colormatrix3" />
      <feBlend
         id="feBlend5790"
         in2="colormatrix3"
         mode="normal"
         result="blend1" />
      <feColorMatrix
         id="feColorMatrix5792"
         type="matrix"
         values="2.5 -0.75 -0.75 0 0 -0.75 2.5 -0.75 0 0 -0.75 -0.75 2.5 0 0 0 0 0 1 0 "
         result="colormatrix4" />
      <feComposite
         id="feComposite5794"
         in2="blend1"
         in="colormatrix4"
         operator="arithmetic"
         k2="0"
         result="composite1" />
      <feBlend
         id="feBlend5796"
         in2="blend1"
         mode="normal"
         result="fbSourceGraphic" />
      <feColorMatrix
         result="fbSourceGraphicAlpha"
         in="fbSourceGraphic"
         values="0 0 0 -1 0 0 0 0 -1 0 0 0 0 -1 0 0 0 0 1 0"
         id="feColorMatrix5814" />
      <feColorMatrix
         id="feColorMatrix5816"
         values="1 0 0 0 0 0 1 0 0 0 0 0 1 0 0 0 0 0 1000 -500 "
         in="fbSourceGraphic" />
    </filter>
  </defs>
  <sodipodi:namedview
     id="base"
     pagecolor="#ffffff"
     bordercolor="#666666"
     borderopacity="1.0"
     inkscape:pageopacity="0.0"
     inkscape:pageshadow="2"
     inkscape:zoom="5.6"
     inkscape:cx="11.415576"
     inkscape:cy="62.5307"
     inkscape:document-units="mm"
     inkscape:current-layer="layer1"
     showgrid="true"
     units="px"
     inkscape:snap-bbox="true"
     inkscape:object-nodes="true"
     inkscape:window-width="1920"
     inkscape:window-height="1016"
     inkscape:window-x="0"
     inkscape:window-y="27"
     inkscape:window-maximized="1">
    <inkscape:grid
       type="xygrid"
       id="grid4141" />
  </sodipodi:namedview>
  <metadata
     id="metadata7">
    <rdf:RDF>
      <cc:Work
         rdf:about="">
        <dc:format>image/svg+xml</dc:format>
        <dc:type
           rdf:resource="http://purl.org/dc/dcmitype/StillImage" />
        <dc:title></dc:title>
      </cc:Work>
    </rdf:RDF>
  </metadata>
  <g
     inkscape:label="Livello 1"
     inkscape:groupmode="layer"
     id="layer1"
     transform="translate(0,-270.54165)">
    <path
       style="fill:#000000;fill-opacity:1;fill-rule:evenodd;stroke:none;stroke-width:0.26458332px;stroke-linecap:butt;stroke-linejoin:miter;stroke-opacity:1"
       d="m 2.6458326,279.80207 0,1.32292 1.3229166,0 0,-1.32292 -1.3229166,0"
       id="path5592"
       inkscape:connector-curvature="0" />
    <path
       style="fill:#000000;fill-opacity:1;fill-rule:evenodd;stroke:none;stroke-width:0.26458332px;stroke-linecap:butt;stroke-linejoin:miter;stroke-opacity:1"
       d="m 3.9687493,281.12498 0,1.32292 1.3229166,0 0,-1.32292 -1.3229166,0"
       id="path5592-0"
       inkscape:connector-curvature="0" />
    <path
       style="fill:#000000;fill-opacity:1;fill-rule:evenodd;stroke:none;stroke-width:0.26458332px;stroke-linecap:butt;stroke-linejoin:miter;stroke-opacity:1"
       d="m 5.291666,281.12498 0,1.32292 1.3229166,0 0,-1.32292 -1.3229166,0"
       id="path5592-3"
       inkscape:connector-curvature="0" />
    <path
       style="fill:#000000;fill-opacity:1;fill-rule:evenodd;stroke:none;stroke-width:0.26458332px;stroke-linecap:butt;stroke-linejoin:miter;stroke-opacity:1"
       d="m 6.6145826,282.4479 0,1.32292 1.3229166,0 0,-1.32292 -1.3229166,0"
       id="path5592-1"
       inkscape:connector-curvature="0" />
    <path
       style="fill:#000000;fill-opacity:1;fill-rule:evenodd;stroke:none;stroke-width:0.26458332px;stroke-linecap:butt;stroke-linejoin:miter;stroke-opacity:1"
       d="m 7.9374993,283.77082 0,1.32292 1.3229166,0 0,-1.32292 -1.3229166,0"
       id="path5592-9"
       inkscape:connector-curvature="0" />
    <path
       style="fill:#000000;fill-opacity:1;fill-rule:evenodd;stroke:none;stroke-width:0.26458332px;stroke-linecap:butt;stroke-linejoin:miter;stroke-opacity:1"
       d="m 9.260416,283.77082 0,1.32292 1.322916,0 0,-1.32292 -1.322916,0"
       id="path5592-5"
       inkscape:connector-curvature="0" />
    <path
       style="fill:#000000;fill-opacity:1;fill-rule:evenodd;stroke:none;stroke-width:0.26458332px;stroke-linecap:butt;stroke-linejoin:miter;stroke-opacity:1"
       d="m 10.583332,285.09373 0,1.32292 1.322917,0 0,-1.32292 -1.322917,0"
       id="path5592-14"
       inkscape:connector-curvature="0" />
    <path
       style="fill:#000000;fill-opacity:1;fill-rule:evenodd;stroke:none;stroke-width:0.26458332px;stroke-linecap:butt;stroke-linejoin:miter;stroke-opacity:1"
       d="m 11.906249,285.09373 0,1.32292 1.322917,0 0,-1.32292 -1.322917,0"
       id="path5592-30"
       inkscape:connector-curvature="0" />
    <path
       style="fill:#000000;fill-opacity:1;fill-rule:evenodd;stroke:none;stroke-width:0.26458332px;stroke-linecap:butt;stroke-linejoin:miter;stroke-opacity:1"
       d="m 13.229166,283.77082 0,1.32292 1.322916,0 0,-1.32292 -1.322916,0"
       id="path5592-2"
       inkscape:connector-curvature="0" />
    <path
       style="fill:#000000;fill-opacity:1;fill-rule:evenodd;stroke:none;stroke-width:0.26458332px;stroke-linecap:butt;stroke-linejoin:miter;stroke-opacity:1"
       d="m 14.552082,283.77082 0,1.32292 1.322917,0 0,-1.32292 -1.322917,0"
       id="path5592-51"
       inkscape:connector-curvature="0" />
    <path
       style="fill:#000000;fill-opacity:1;fill-rule:evenodd;stroke:none;stroke-width:0.26458332px;stroke-linecap:butt;stroke-linejoin:miter;stroke-opacity:1"
       d="m 15.874999,282.4479 0,1.32292 1.322917,0 0,-1.32292 -1.322917,0"
       id="path5592-20"
       inkscape:connector-curvature="0" />
    <path
       style="fill:#000000;fill-opacity:1;fill-rule:evenodd;stroke:none;stroke-width:0.26458332px;stroke-linecap:butt;stroke-linejoin:miter;stroke-opacity:1"
       d="m 17.197916,282.4479 0,1.32292 1.322916,0 0,-1.32292 -1.322916,0"
       id="path5592-53"
       inkscape:connector-curvature="0" />
    <path
       style="fill:#000000;fill-opacity:1;fill-rule:evenodd;stroke:none;stroke-width:0.26458332px;stroke-linecap:butt;stroke-linejoin:miter;stroke-opacity:1"
       d="m 18.520832,281.12498 0,1.32292 1.322917,0 0,-1.32292 -1.322917,0"
       id="path5592-7"
       inkscape:connector-curvature="0" />
    <path
       style="fill:#000000;fill-opacity:1;fill-rule:evenodd;stroke:none;stroke-width:0.26458332px;stroke-linecap:butt;stroke-linejoin:miter;stroke-opacity:1"
       d="m 19.843749,279.80207 0,1.32292 1.322917,0 0,-1.32292 -1.322917,0"
       id="path5592-02"
       inkscape:connector-curvature="0" />
    <path
       style="fill:#000000;fill-opacity:1;fill-rule:evenodd;stroke:none;stroke-width:0.26458332px;stroke-linecap:butt;stroke-linejoin:miter;stroke-opacity:1"
       d="m 21.166666,279.80207 0,1.32292 1.322916,0 0,-1.32292 -1.322916,0"
       id="path5592-06"
       inkscape:connector-curvature="0" />
    <path
       style="fill:#000000;fill-opacity:1;fill-rule:evenodd;stroke:none;stroke-width:0.26458332px;stroke-linecap:butt;stroke-linejoin:miter;stroke-opacity:1"
       d="m 21.166666,278.47915 0,1.32292 1.322916,0 0,-1.32292 -1.322916,0"
       id="path5592-00"
       inkscape:connector-curvature="0" />
    <path
       style="fill:#000000;fill-opacity:1;fill-rule:evenodd;stroke:none;stroke-width:0.26458332px;stroke-linecap:butt;stroke-linejoin:miter;stroke-opacity:1"
       d="m 19.843749,277.15623 0,1.32292 1.322917,0 0,-1.32292 -1.322917,0"
       id="path5592-96"
       inkscape:connector-curvature="0" />
    <path
       style="fill:#000000;fill-opacity:1;fill-rule:evenodd;stroke:none;stroke-width:0.26458332px;stroke-linecap:butt;stroke-linejoin:miter;stroke-opacity:1"
       d="m 18.520832,277.15623 0,1.32292 1.322917,0 0,-1.32292 -1.322917,0"
       id="path5592-205"
       inkscape:connector-curvature="0" />
    <path
       style="fill:#000000;fill-opacity:1;fill-rule:evenodd;stroke:none;stroke-width:0.26458332px;stroke-linecap:butt;stroke-linejoin:miter;stroke-opacity:1"
       d="m 17.197916,275.83332 0,1.32292 1.322916,0 0,-1.32292 -1.322916,0"
       id="path5592-4"
       inkscape:connector-curvature="0" />
    <path
       style="fill:#000000;fill-opacity:1;fill-rule:evenodd;stroke:none;stroke-width:0.26458332px;stroke-linecap:butt;stroke-linejoin:miter;stroke-opacity:1"
       d="m 15.874999,275.83332 0,1.32292 1.322917,0 0,-1.32292 -1.322917,0"
       id="path5592-48"
       inkscape:connector-curvature="0" />
    <path
       style="fill:#000000;fill-opacity:1;fill-rule:evenodd;stroke:none;stroke-width:0.26458332px;stroke-linecap:butt;stroke-linejoin:miter;stroke-opacity:1"
       d="m 14.552082,274.5104 0,1.32292 1.322917,0 0,-1.32292 -1.322917,0"
       id="path5592-47"
       inkscape:connector-curvature="0" />
    <path
       style="fill:#000000;fill-opacity:1;fill-rule:evenodd;stroke:none;stroke-width:0.26458332px;stroke-linecap:butt;stroke-linejoin:miter;stroke-opacity:1"
       d="m 13.229166,274.5104 0,1.32292 1.322916,0 0,-1.32292 -1.322916,0"
       id="path5592-95"
       inkscape:connector-curvature="0" />
    <path
       style="fill:#000000;fill-opacity:1;fill-rule:evenodd;stroke:none;stroke-width:0.26458332px;stroke-linecap:butt;stroke-linejoin:miter;stroke-opacity:1"
       d="m 11.906249,274.5104 0,1.32292 1.322917,0 0,-1.32292 -1.322917,0"
       id="path5592-22"
       inkscape:connector-curvature="0" />
    <path
       style="fill:#000000;fill-opacity:1;fill-rule:evenodd;stroke:none;stroke-width:0.26458332px;stroke-linecap:butt;stroke-linejoin:miter;stroke-opacity:1"
       d="m 10.583332,274.5104 0,1.32292 1.322917,0 0,-1.32292 -1.322917,0"
       id="path5592-97"
       inkscape:connector-curvature="0" />
    <path
       style="fill:#000000;fill-opacity:1;fill-rule:evenodd;stroke:none;stroke-width:0.26458332px;stroke-linecap:butt;stroke-linejoin:miter;stroke-opacity:1"
       d="m 9.260416,275.83332 0,1.32292 1.322916,0 0,-1.32292 -1.322916,0"
       id="path5592-43"
       inkscape:connector-curvature="0" />
    <path
       style="fill:#000000;fill-opacity:1;fill-rule:evenodd;stroke:none;stroke-width:0.26458332px;stroke-linecap:butt;stroke-linejoin:miter;stroke-opacity:1"
       d="m 7.9374993,275.83332 0,1.32292 1.3229166,0 0,-1.32292 -1.3229166,0"
       id="path5592-26"
       inkscape:connector-curvature="0" />
    <path
       style="fill:#000000;fill-opacity:1;fill-rule:evenodd;stroke:none;stroke-width:0.26458332px;stroke-linecap:butt;stroke-linejoin:miter;stroke-opacity:1"
       d="m 6.6145826,277.15623 0,1.32292 1.3229166,0 0,-1.32292 -1.3229166,0"
       id="path5592-6"
       inkscape:connector-curvature="0" />
    <path
       style="fill:#000000;fill-opacity:1;fill-rule:evenodd;stroke:none;stroke-width:0.26458332px;stroke-linecap:butt;stroke-linejoin:miter;stroke-opacity:1"
       d="m 5.291666,277.15623 0,1.32292 1.3229166,0 0,-1.32292 -1.3229166,0"
       id="path5592-41"
       inkscape:connector-curvature="0" />
    <path
       style="fill:#000000;fill-opacity:1;fill-rule:evenodd;stroke:none;stroke-width:0.26458332px;stroke-linecap:butt;stroke-linejoin:miter;stroke-opacity:1"
       d="m 3.9687493,278.47915 0,1.32292 1.3229166,0 0,-1.32292 -1.3229166,0"
       id="path5592-13"
       inkscape:connector-curvature="0" />
    <path
       style="fill:#000000;fill-opacity:1;fill-rule:evenodd;stroke:none;stroke-width:0.26458332px;stroke-linecap:butt;stroke-linejoin:miter;stroke-opacity:1"
       d="m 2.6458326,278.47915 0,1.32292 1.3229166,0 0,-1.32292 -1.3229166,0"
       id="path5592-36"
       inkscape:connector-curvature="0" />
    <path
       style="fill:#1f1f1f;fill-opacity:1;fill-rule:evenodd;stroke:none;stroke-width:0.26458332px;stroke-linecap:butt;stroke-linejoin:miter;stroke-opacity:1"
       d="m 10.583332,275.83332 5.291667,0 0,1.32292 2.645833,0 0,1.32291 2.645833,0 0,1.32292 -1.322916,0 0,1.32292 -1.322917,0 0,1.32291 -2.645833,0 0,1.32292 -2.645833,0 0,1.32292 -2.645834,0 0,-1.32292 -2.6458328,0 0,-1.32292 -1.3229167,0 0,-1.32291 -2.6458332,0 c 0,0 0,-1.32292 0,-1.32292 l 1.3229166,0 0,-1.32292 2.6458333,0 0,-1.32291 2.6458328,0 z"
       id="path6067"
       inkscape:connector-curvature="0" />
    <path
       style="fill:#1f1f1f;fill-opacity:1;fill-rule:evenodd;stroke:none;stroke-width:0.26458332px;stroke-linecap:butt;stroke-linejoin:miter;stroke-opacity:1"
       d="m 19.843749,282.4479 0,1.32292 1.322917,0 0,-1.32292 -1.322917,0"
       id="path5592-516"
       inkscape:connector-curvature="0" />
    <path
       style="fill:#1f1f1f;fill-opacity:1;fill-rule:evenodd;stroke:none;stroke-width:0.26458332px;stroke-linecap:butt;stroke-linejoin:miter;stroke-opacity:1"
       d="m 19.843749,281.12498 0,1.32292 1.322917,0 0,-1.32292 -1.322917,0"
       id="path5592-516-3"
       inkscape:connector-curvature="0" />
    <path
       style="fill:#1f1f1f;fill-opacity:1;fill-rule:evenodd;stroke:none;stroke-width:0.26458332px;stroke-linecap:butt;stroke-linejoin:miter;stroke-opacity:1"
       d="m 19.843749,283.77082 0,1.32292 1.322917,0 0,-1.32292 -1.322917,0"
       id="path5592-516-9"
       inkscape:connector-curvature="0" />
    <path
       style="fill:#1f1f1f;fill-opacity:1;fill-rule:evenodd;stroke:none;stroke-width:0.26458332px;stroke-linecap:butt;stroke-linejoin:miter;stroke-opacity:1"
       d="m 19.843749,285.09373 0,1.32292 1.322917,0 0,-1.32292 -1.322917,0"
       id="path5592-516-5"
       inkscape:connector-curvature="0" />
    <path
       style="fill:#1f1f1f;fill-opacity:1;fill-rule:evenodd;stroke:none;stroke-width:0.26458332px;stroke-linecap:butt;stroke-linejoin:miter;stroke-opacity:1"
       d="m 19.843749,286.41665 0,1.32292 1.322917,0 0,-1.32292 -1.322917,0"
       id="path5592-516-7"
       inkscape:connector-curvature="0" />
    <path
       style="fill:#1f1f1f;fill-opacity:1;fill-rule:evenodd;stroke:none;stroke-width:0.26458332px;stroke-linecap:butt;stroke-linejoin:miter;stroke-opacity:1"
       d="m 18.520832,287.73957 0,1.32292 1.322917,0 0,-1.32292 -1.322917,0"
       id="path5592-516-0"
       inkscape:connector-curvature="0" />
    <path
       style="fill:#1f1f1f;fill-opacity:1;fill-rule:evenodd;stroke:none;stroke-width:0.26458332px;stroke-linecap:butt;stroke-linejoin:miter;stroke-opacity:1"
       d="m 17.197915,289.06248 0,1.32292 1.322917,0 0,-1.32292 -1.322917,0"
       id="path5592-516-2"
       inkscape:connector-curvature="0" />
    <path
       style="fill:#1f1f1f;fill-opacity:1;fill-rule:evenodd;stroke:none;stroke-width:0.26458332px;stroke-linecap:butt;stroke-linejoin:miter;stroke-opacity:1"
       d="m 15.874999,289.06248 0,1.32292 1.322917,0 0,-1.32292 -1.322917,0"
       id="path5592-516-6"
       inkscape:connector-curvature="0" />
    <path
       style="fill:#1f1f1f;fill-opacity:1;fill-rule:evenodd;stroke:none;stroke-width:0.26458332px;stroke-linecap:butt;stroke-linejoin:miter;stroke-opacity:1"
       d="m 14.552082,289.06248 0,1.32292 1.322917,0 0,-1.32292 -1.322917,0"
       id="path5592-516-97"
       inkscape:connector-curvature="0" />
    <path
       style="fill:#1f1f1f;fill-opacity:1;fill-rule:evenodd;stroke:none;stroke-width:0.26458332px;stroke-linecap:butt;stroke-linejoin:miter;stroke-opacity:1"
       d="m 11.906249,289.06248 0,1.32292 1.322917,0 0,-1.32292 -1.322917,0"
       id="path5592-516-04"
       inkscape:connector-curvature="0" />
    <path
       style="fill:#1f1f1f;fill-opacity:1;fill-rule:evenodd;stroke:none;stroke-width:0.26458332px;stroke-linecap:butt;stroke-linejoin:miter;stroke-opacity:1"
       d="m 11.906249,289.06248 0,1.32292 1.322917,0 0,-1.32292 -1.322917,0"
       id="path5592-516-77"
       inkscape:connector-curvature="0" />
    <path
       style="fill:#1f1f1f;fill-opacity:1;fill-rule:evenodd;stroke:none;stroke-width:0.26458332px;stroke-linecap:butt;stroke-linejoin:miter;stroke-opacity:1"
       d="m 13.229165,289.06248 0,1.32292 1.322917,0 0,-1.32292 -1.322917,0"
       id="path5592-516-8"
       inkscape:connector-curvature="0" />
    <path
       style="fill:#1f1f1f;fill-opacity:1;fill-rule:evenodd;stroke:none;stroke-width:0.26458332px;stroke-linecap:butt;stroke-linejoin:miter;stroke-opacity:1"
       d="m 10.583332,289.06248 0,1.32292 1.322917,0 0,-1.32292 -1.322917,0"
       id="path5592-516-21"
       inkscape:connector-curvature="0" />
    <path
       style="fill:#1f1f1f;fill-opacity:1;fill-rule:evenodd;stroke:none;stroke-width:0.26458332px;stroke-linecap:butt;stroke-linejoin:miter;stroke-opacity:1"
       d="m 9.2604157,289.06248 0,1.32292 1.3229163,0 0,-1.32292 -1.3229163,0"
       id="path5592-516-60"
       inkscape:connector-curvature="0" />
    <path
       style="fill:#1f1f1f;fill-opacity:1;fill-rule:evenodd;stroke:none;stroke-width:0.26458332px;stroke-linecap:butt;stroke-linejoin:miter;stroke-opacity:1"
       d="m 7.937499,289.06248 0,1.32292 1.322917,0 0,-1.32292 -1.322917,0"
       id="path5592-516-57"
       inkscape:connector-curvature="0" />
    <path
       style="fill:#1f1f1f;fill-opacity:1;fill-rule:evenodd;stroke:none;stroke-width:0.26458332px;stroke-linecap:butt;stroke-linejoin:miter;stroke-opacity:1"
       d="m 6.6145824,287.73957 0,1.32292 1.322917,0 0,-1.32292 -1.322917,0"
       id="path5592-516-4"
       inkscape:connector-curvature="0" />
    <path
       style="fill:#1f1f1f;fill-opacity:1;fill-rule:evenodd;stroke:none;stroke-width:0.26458332px;stroke-linecap:butt;stroke-linejoin:miter;stroke-opacity:1"
       d="m 5.2916657,286.41665 0,1.32292 1.322917,0 0,-1.32292 -1.322917,0"
       id="path5592-516-02"
       inkscape:connector-curvature="0" />
    <path
       style="fill:#1f1f1f;fill-opacity:1;fill-rule:evenodd;stroke:none;stroke-width:0.26458332px;stroke-linecap:butt;stroke-linejoin:miter;stroke-opacity:1"
       d="m 5.2916657,285.09373 0,1.32292 1.322917,0 0,-1.32292 -1.322917,0"
       id="path5592-516-06"
       inkscape:connector-curvature="0" />
    <path
       style="fill:#1f1f1f;fill-opacity:1;fill-rule:evenodd;stroke:none;stroke-width:0.26458332px;stroke-linecap:butt;stroke-linejoin:miter;stroke-opacity:1"
       d="m 5.2916657,283.77082 0,1.32292 1.322917,0 0,-1.32292 -1.322917,0"
       id="path5592-516-36"
       inkscape:connector-curvature="0" />
    <path
       style="fill:#1f1f1f;fill-opacity:1;fill-rule:evenodd;stroke:none;stroke-width:0.26458332px;stroke-linecap:butt;stroke-linejoin:miter;stroke-opacity:1"
       d="m 5.2916657,282.4479 0,1.32292 1.322917,0 0,-1.32292 -1.322917,0"
       id="path5592-516-362"
       inkscape:connector-curvature="0" />
    <path
       style="fill:#1f1f1f;fill-opacity:1;fill-rule:evenodd;stroke:none;stroke-width:0.26458332px;stroke-linecap:butt;stroke-linejoin:miter;stroke-opacity:1"
       d="m 6.6145824,283.77082 0,1.32292 1.322917,0 0,-1.32292 -1.322917,0"
       id="path5592-516-51"
       inkscape:connector-curvature="0" />
    <path
       style="fill:#1f1f1f;fill-opacity:1;fill-rule:evenodd;stroke:none;stroke-width:0.26458332px;stroke-linecap:butt;stroke-linejoin:miter;stroke-opacity:1"
       d="m 7.937499,285.09373 0,1.32292 1.322917,0 0,-1.32292 -1.322917,0"
       id="path5592-516-30"
       inkscape:connector-curvature="0" />
    <path
       style="fill:#1f1f1f;fill-opacity:1;fill-rule:evenodd;stroke:none;stroke-width:0.26458332px;stroke-linecap:butt;stroke-linejoin:miter;stroke-opacity:1"
       d="m 9.2604157,285.09373 0,1.32292 1.3229163,0 0,-1.32292 -1.3229163,0"
       id="path5592-516-03"
       inkscape:connector-curvature="0" />
    <path
       style="fill:#1f1f1f;fill-opacity:1;fill-rule:evenodd;stroke:none;stroke-width:0.26458332px;stroke-linecap:butt;stroke-linejoin:miter;stroke-opacity:1"
       d="m 9.2604157,286.41665 0,1.32292 1.3229163,0 0,-1.32292 -1.3229163,0"
       id="path5592-516-48"
       inkscape:connector-curvature="0" />
    <path
       style="fill:#1f1f1f;fill-opacity:1;fill-rule:evenodd;stroke:none;stroke-width:0.26458332px;stroke-linecap:butt;stroke-linejoin:miter;stroke-opacity:1"
       d="m 11.906249,286.41665 0,1.32292 1.322917,0 0,-1.32292 -1.322917,0"
       id="path5592-516-52"
       inkscape:connector-curvature="0" />
    <path
       style="fill:#1f1f1f;fill-opacity:1;fill-rule:evenodd;stroke:none;stroke-width:0.26458332px;stroke-linecap:butt;stroke-linejoin:miter;stroke-opacity:1"
       d="m 10.583332,286.41665 0,1.32292 1.322917,0 0,-1.32292 -1.322917,0"
       id="path5592-516-89"
       inkscape:connector-curvature="0" />
    <path
       style="fill:#1f1f1f;fill-opacity:1;fill-rule:evenodd;stroke:none;stroke-width:0.26458332px;stroke-linecap:butt;stroke-linejoin:miter;stroke-opacity:1"
       d="m 13.229165,285.09373 0,1.32292 1.322917,0 0,-1.32292 -1.322917,0"
       id="path5592-516-1"
       inkscape:connector-curvature="0" />
    <path
       style="fill:#1f1f1f;fill-opacity:1;fill-rule:evenodd;stroke:none;stroke-width:0.26458332px;stroke-linecap:butt;stroke-linejoin:miter;stroke-opacity:1"
       d="m 14.552082,285.09373 0,1.32292 1.322917,0 0,-1.32292 -1.322917,0"
       id="path5592-516-59"
       inkscape:connector-curvature="0" />
    <path
       style="fill:#1f1f1f;fill-opacity:1;fill-rule:evenodd;stroke:none;stroke-width:0.26458332px;stroke-linecap:butt;stroke-linejoin:miter;stroke-opacity:1"
       d="m 15.874999,283.77082 0,1.32292 1.322917,0 0,-1.32292 -1.322917,0"
       id="path5592-516-38"
       inkscape:connector-curvature="0" />
    <path
       style="fill:#1f1f1f;fill-opacity:1;fill-rule:evenodd;stroke:none;stroke-width:0.26458332px;stroke-linecap:butt;stroke-linejoin:miter;stroke-opacity:1"
       d="m 17.197915,283.77082 0,1.32292 1.322917,0 0,-1.32292 -1.322917,0"
       id="path5592-516-66"
       inkscape:connector-curvature="0" />
    <path
       style="fill:#1f1f1f;fill-opacity:1;fill-rule:evenodd;stroke:none;stroke-width:0.26458332px;stroke-linecap:butt;stroke-linejoin:miter;stroke-opacity:1"
       d="m 18.520832,282.4479 0,1.32292 1.322917,0 0,-1.32292 -1.322917,0"
       id="path5592-516-35"
       inkscape:connector-curvature="0" />
    <path
       style="fill:#5c5c5c;fill-opacity:1;fill-rule:evenodd;stroke:none;stroke-width:0.26458332px;stroke-linecap:butt;stroke-linejoin:miter;stroke-opacity:1"
       d="m 6.6145825,285.09374 1.3229167,0 0,1.32291 1.3229167,0 0,1.32292 3.9687501,0 0,-1.32292 2.645833,0 0,-1.32291 2.645833,0 0,-1.32292 1.322917,0 0,3.96875 -1.322917,0 c 0,0 0,1.32292 0,1.32292 l -10.5833328,0 0,-1.32292 -1.3229167,0 z"
       id="path6288"
       inkscape:connector-curvature="0" />
    <path
       style="fill:#0039aa;fill-opacity:1;fill-rule:evenodd;stroke:none;stroke-width:0.26458332px;stroke-linecap:butt;stroke-linejoin:miter;stroke-opacity:1"
       d="m 11.906249,279.80207 0,1.32292 1.322917,0 0,-1.32292 -1.322917,0"
       id="path5592-516-038"
       inkscape:connector-curvature="0" />
    <path
       style="fill:#0039aa;fill-opacity:1;fill-rule:evenodd;stroke:none;stroke-width:0.26458332px;stroke-linecap:butt;stroke-linejoin:miter;stroke-opacity:1"
       d="m 13.229166,279.80207 0,1.32292 1.322917,0 0,-1.32292 -1.322917,0"
       id="path5592-516-038-3"
       inkscape:connector-curvature="0" />
    <path
       style="fill:#0039aa;fill-opacity:1;fill-rule:evenodd;stroke:none;stroke-width:0.26458332px;stroke-linecap:butt;stroke-linejoin:miter;stroke-opacity:1"
       d="m 14.552082,281.12499 0,1.32292 1.322917,0 0,-1.32292 -1.322917,0"
       id="path5592-516-038-8"
       inkscape:connector-curvature="0" />
    <path
       style="fill:#0039aa;fill-opacity:1;fill-rule:evenodd;stroke:none;stroke-width:0.26458332px;stroke-linecap:butt;stroke-linejoin:miter;stroke-opacity:1"
       d="m 15.874999,281.12499 0,1.32292 1.322917,0 0,-1.32292 -1.322917,0"
       id="path5592-516-038-5"
       inkscape:connector-curvature="0" />
    <path
       style="fill:#0039aa;fill-opacity:1;fill-rule:evenodd;stroke:none;stroke-width:0.26458332px;stroke-linecap:butt;stroke-linejoin:miter;stroke-opacity:1"
       d="m 17.197916,282.4479 0,1.32292 1.322917,0 0,-1.32292 -1.322917,0"
       id="path5592-516-038-1"
       inkscape:connector-curvature="0" />
    <path
       style="fill:#0039aa;fill-opacity:1;fill-rule:evenodd;stroke:none;stroke-width:0.26458332px;stroke-linecap:butt;stroke-linejoin:miter;stroke-opacity:1"
       d="m 18.520832,282.4479 0,1.32292 1.322917,0 0,-1.32292 -1.322917,0"
       id="path5592-516-038-0"
       inkscape:connector-curvature="0" />
    <path
       style="fill:#0039aa;fill-opacity:1;fill-rule:evenodd;stroke:none;stroke-width:0.26458332px;stroke-linecap:butt;stroke-linejoin:miter;stroke-opacity:1"
       d="m 19.843749,283.77082 0,1.32292 1.322917,0 0,-1.32292 -1.322917,0"
       id="path5592-516-038-02"
       inkscape:connector-curvature="0" />
    <path
       style="fill:#0039aa;fill-opacity:1;fill-rule:evenodd;stroke:none;stroke-width:0.26458332px;stroke-linecap:butt;stroke-linejoin:miter;stroke-opacity:1"
       d="m 19.843749,285.09374 0,1.32292 1.322917,0 0,-1.32292 -1.322917,0"
       id="path5592-516-038-52"
       inkscape:connector-curvature="0" />
    <path
       style="fill:#0039aa;fill-opacity:1;fill-rule:evenodd;stroke:none;stroke-width:0.26458332px;stroke-linecap:butt;stroke-linejoin:miter;stroke-opacity:1"
       d="m 19.843749,286.41665 0,1.32292 1.322917,0 0,-1.32292 -1.322917,0"
       id="path5592-516-038-4"
       inkscape:connector-curvature="0" />
    <path
       style="fill:#0039aa;fill-opacity:1;fill-rule:evenodd;stroke:none;stroke-width:0.26458332px;stroke-linecap:butt;stroke-linejoin:miter;stroke-opacity:1"
       d="m 19.843749,287.73957 0,1.32292 1.322917,0 0,-1.32292 -1.322917,0"
       id="path5592-516-038-9"
       inkscape:connector-curvature="0" />
    <path
       style="fill:#0039aa;fill-opacity:1;fill-rule:evenodd;stroke:none;stroke-width:0.26458332px;stroke-linecap:butt;stroke-linejoin:miter;stroke-opacity:1"
       d="m 19.843749,289.06249 0,1.32292 1.322917,0 0,-1.32292 -1.322917,0"
       id="path5592-516-038-7"
       inkscape:connector-curvature="0" />
  </g>
</svg>
