<?xml version="1.0" encoding="UTF-8" standalone="no"?>
<!-- Created with Inkscape (http://www.inkscape.org/) -->

<svg
   xmlns:dc="http://purl.org/dc/elements/1.1/"
   xmlns:cc="http://creativecommons.org/ns#"
   xmlns:rdf="http://www.w3.org/1999/02/22-rdf-syntax-ns#"
   xmlns:svg="http://www.w3.org/2000/svg"
   xmlns="http://www.w3.org/2000/svg"
   xmlns:sodipodi="http://sodipodi.sourceforge.net/DTD/sodipodi-0.dtd"
   xmlns:inkscape="http://www.inkscape.org/namespaces/inkscape"
   version="1.0"
   width="300"
   height="300"
   viewBox="0 0 297.59815 567.18777"
   id="svg2"
   xml:space="preserve"
   inkscape:version="0.91+devel r"
   sodipodi:docname="sql.svg"><metadata
     id="metadata16"><rdf:RDF><cc:Work
         rdf:about=""><dc:format>image/svg+xml</dc:format><dc:type
           rdf:resource="http://purl.org/dc/dcmitype/StillImage" /></cc:Work></rdf:RDF></metadata><sodipodi:namedview
     pagecolor="#ffffff"
     bordercolor="#666666"
     borderopacity="1"
     objecttolerance="10"
     gridtolerance="10"
     guidetolerance="10"
     inkscape:pageopacity="0"
     inkscape:pageshadow="2"
     inkscape:window-width="1920"
     inkscape:window-height="1016"
     id="namedview14"
     showgrid="false"
     fit-margin-top="0"
     fit-margin-left="0"
     fit-margin-right="0"
     fit-margin-bottom="0"
     inkscape:zoom="0.60235022"
     inkscape:cx="-0.18652811"
     inkscape:cy="239.55995"
     inkscape:window-x="0"
     inkscape:window-y="27"
     inkscape:window-maximized="1"
     inkscape:current-layer="svg2" /><defs
     id="defs4"><style
       type="text/css"
       id="style6" /></defs><g
     id="g3001"
     transform="translate(230.46016,6.4962049)"><path
       d="m 156.08311,428.63114 c -30.7184,-0.766 -54.5256,2.30776 -74.493203,10.75339 -5.7597,2.30291 -14.9762,2.30532 -15.7446,9.59947 3.0738,3.0738 3.4568,8.06506 6.1451,12.28786 4.6107,7.67715 12.6709,18.04753 19.9675,23.42422 8.062603,6.1427 16.127603,12.2854 24.573303,17.66209 14.9762,9.2165 31.8722,14.59072 46.463,23.80718 8.4505,5.37179 16.8936,12.28784 25.3417,18.04753 4.2253,3.06891 6.9112,8.06258 12.2879,9.98248 0,-0.38544 0,-0.76845 0,-1.15144 -2.6884,-3.45677 -3.4568,-8.44803 -6.1427,-12.28784 -3.8374,-3.8398 -7.6796,-7.29658 -11.5194,-11.13638 -11.1364,-14.97378 -24.9588,-28.02995 -39.9348,-38.78092 -12.2854,-8.44807 -39.1664,-19.96745 -44.157803,-34.17521 0,0 -0.3854,-0.38301 -0.7684,-0.76602 8.448003,-0.76845 18.430503,-3.83977 26.495603,-6.14514 13.0563,-3.45676 24.9588,-2.68833 38.3979,-6.1427 6.1427,-1.53687 12.2879,-3.45677 18.4306,-5.37668 0,-1.15388 0,-2.30289 0,-3.45433 -6.9087,-6.91362 -11.9024,-16.12764 -19.199,-22.65583 -19.582,-16.8985 -41.0864,-33.40675 -63.356703,-47.22911 -11.9049,-7.67959 -27.2641,-12.67331 -39.9348,-19.19902 -4.6058,-2.30776 -12.2879,-3.45676 -14.9738,-7.2966 -6.91357,-8.44802 -10.75337,-19.58197 -15.74461,-29.56698 C 17.084397,287.70993 6.3285071,264.29046 -3.2708729,242.0201 -10.179573,227.04391 -14.404813,212.06765 -22.852863,198.24553 -62.402193,132.96901 -105.40856,93.419462 -171.4535,54.636068 c -14.20773,-8.062621 -31.10133,-11.519386 -49.14892,-15.742191 -9.59705,-0.385445 -19.199,-1.151443 -28.79857,-1.536888 -6.1427,-2.688373 -12.28784,-9.982498 -17.66455,-13.439294 -21.88243,-13.824729 -78.33046,-43.772305 -94.45805,-4.222805 -10.36795,24.958763 15.3592,49.531905 24.19015,62.205129 6.53058,8.831075 14.97619,18.813551 19.58444,28.798591 2.68836,6.52327 3.45435,13.43928 6.14271,20.35044 6.14513,16.89121 11.90239,35.70954 19.96743,51.45435 4.22524,8.06262 8.83105,16.51066 14.20774,23.80473 3.07134,4.2228 8.4456,6.14514 9.59948,13.05629 -5.37424,7.67957 -5.75969,19.199 -8.83349,28.79857 -13.82229,43.38913 -8.44561,97.14647 11.1364,129.0162 6.1427,9.59707 20.7358,30.72084 40.31796,22.65582 17.27909,-6.91118 13.43928,-28.79857 18.43054,-47.99757 1.1539,-4.61068 0.38544,-7.67957 2.68835,-10.75095 0.002,0.38301 0,0.76844 0,0.76844 5.37668,10.75095 10.75095,21.11897 15.74219,31.86974 11.90483,18.81355 32.63836,38.39797 49.91734,51.45439 9.21894,6.90868 16.51308,18.81356 28.03243,23.03878 0,-0.38791 0,-0.76846 0,-1.1539 -0.38545,0 -0.38545,0 -0.76844,0 -2.30534,-3.45677 -5.75969,-4.99126 -8.83105,-7.67957 -6.91116,-6.91116 -14.59319,-15.35923 -19.96743,-23.03878 -16.1252,-21.50442 -30.3354,-45.30913 -43.00617,-69.88473 -6.1427,-11.90239 -11.51938,-24.95879 -16.51064,-36.86114 -2.30534,-4.61067 -2.30534,-11.51939 -6.14514,-13.82228 -5.75969,8.44559 -14.2053,15.74219 -18.43054,26.11016 -7.29171,16.51064 -8.0626,36.86113 -10.75095,57.97988 -1.53448,0.38546 -0.76846,0 -1.53691,0.76847 -12.28541,-3.0738 -16.51065,-15.74219 -21.11898,-26.4956 -11.51939,-27.26153 -13.43928,-71.03632 -3.45435,-102.52061 2.68835,-8.06504 14.20774,-33.40678 9.59949,-41.08639 -2.30291,-7.29661 -9.98494,-11.51939 -14.20774,-17.27908 -4.99126,-7.2966 -10.36794,-16.51065 -13.82229,-24.5756 -9.2165,-21.50195 -13.82473,-45.30913 -23.80719,-66.81355 -4.60825,-9.984938 -12.67085,-20.350443 -19.199,-29.564528 -7.29414,-10.367922 -15.3592,-17.664524 -21.11897,-29.952406 -1.91747,-4.222805 -4.60825,-11.133941 -1.53689,-15.742211 0.76845,-3.071331 2.3029,-4.222794 5.37668,-4.991249 4.99126,-4.225241 19.199,1.151443 24.19015,3.45436 14.20774,5.757237 26.11016,11.136398 38.01499,19.198998 5.37425,3.839795 11.13394,11.136397 18.0451,13.056295 2.68835,0 5.37668,0 8.06503,0 12.28784,2.685916 26.11016,0.768413 37.62954,4.222804 20.35288,6.525712 38.78093,16.127636 55.29417,26.4956 50.30279,31.869747 91.769647,77.181347 119.802277,131.321657 4.60825,8.82862 6.52571,16.89607 10.75095,26.11016 8.06504,18.81599 18.0475301,38.01498 26.1101501,56.44555 8.0626,18.04509 15.7421899,36.47813 27.2615399,51.45435 5.76213,8.06018 28.79854,12.2854 39.16634,16.51064 7.6796,3.45437 19.5845,6.52817 26.4956,10.75096 13.053903,8.06016 26.110203,17.27912 38.398003,26.11015 6.1451,4.60583 25.3417,14.20776 26.4956,21.88493 l 1e-4,-4e-5 z"
       style="fill:#00546b"
       id="path16"
       inkscape:connector-curvature="0" /><path
       d="m -235.5806,94.951482 c -6.52814,0 -11.13394,0.77089 -15.74219,1.92236 0,-0.002 0,0.38544 0,0.76845 0.38545,0 0.38301,0 0.76846,0 3.07379,6.142698 8.44561,10.367938 12.2854,15.742168 3.0738,6.1427 5.75969,12.28786 8.83349,18.433 0.38299,-0.38545 0.766,-0.76845 0.766,-0.76845 5.37914,-3.84224 8.06504,-9.98494 8.06504,-19.199 -2.30535,-2.68835 -2.68836,-5.37669 -4.60825,-8.06504 -2.30291,-3.842248 -7.29661,-5.759688 -10.36795,-8.833488 l 0,0 z"
       style="fill:#00546b"
       id="path18"
       inkscape:connector-curvature="0" /></g><g
     transform="matrix(0.70752996,0,0,0.70752996,108.0837,227.25918)"
     id="orginal"
     style="clip-rule:nonzero;fill-rule:nonzero;stroke:#000000;stroke-miterlimit:4" /><g
     transform="matrix(0.70752996,0,0,0.70752996,108.0837,227.25918)"
     id="Layer_x0020_3"
     style="clip-rule:nonzero;fill:none;fill-rule:nonzero;stroke:#ffffff;stroke-width:12.46510029;stroke-linecap:round;stroke-linejoin:round;stroke-miterlimit:4"><path
       inkscape:connector-curvature="0"
       style="fill:#000000;stroke:#000000;stroke-width:37.39530182;stroke-linecap:butt;stroke-linejoin:miter"
       d="m 323.205,324.227 c 2.833,-23.601 1.984,-27.062 19.563,-23.239 l 4.463,0.392 c 13.517,0.615 31.199,-2.174 41.587,-7 22.362,-10.376 35.622,-27.7 13.572,-23.148 -50.297,10.376 -53.755,-6.655 -53.755,-6.655 C 401.746,185.774 423.948,85.741 404.784,61.255 352.514,-5.534 262.036,26.049 260.522,26.869 l -0.482,0.089 c -9.938,-2.062 -21.06,-3.294 -33.554,-3.496 -22.761,-0.374 -40.032,5.967 -53.133,15.904 0,0 -161.408,-66.498 -153.899,83.628 1.597,31.936 45.777,241.655 98.47,178.31 19.259,-23.163 37.871,-42.748 37.871,-42.748 9.242,6.14 20.307,9.272 31.912,8.147 l 0.897,-0.765 c -0.281,2.876 -0.157,5.689 0.359,9.019 -13.572,15.167 -9.584,17.83 -36.723,23.416 -27.457,5.659 -11.326,15.734 -0.797,18.367 12.768,3.193 42.305,7.716 62.268,-20.224 l -0.795,3.188 c 5.325,4.26 4.965,30.619 5.72,49.452 0.756,18.834 2.017,36.409 5.856,46.771 3.839,10.36 8.369,37.05 44.036,29.406 29.809,-6.388 52.6,-15.582 54.677,-101.107"
       id="path6" /><path
       inkscape:connector-curvature="0"
       style="fill:#336791;stroke:none"
       d="m 402.395,271.23 c -50.302,10.376 -53.76,-6.655 -53.76,-6.655 53.111,-78.808 75.313,-178.843 56.153,-203.326 -52.27,-66.785 -142.752,-35.2 -144.262,-34.38 l -0.486,0.087 c -9.938,-2.063 -21.06,-3.292 -33.56,-3.496 -22.761,-0.373 -40.026,5.967 -53.127,15.902 0,0 -161.411,-66.495 -153.904,83.63 1.597,31.938 45.776,241.657 98.471,178.312 19.26,-23.163 37.869,-42.748 37.869,-42.748 9.243,6.14 20.308,9.272 31.908,8.147 l 0.901,-0.765 c -0.28,2.876 -0.152,5.689 0.361,9.019 -13.575,15.167 -9.586,17.83 -36.723,23.416 -27.459,5.659 -11.328,15.734 -0.796,18.367 12.768,3.193 42.307,7.716 62.266,-20.224 l -0.796,3.188 c 5.319,4.26 9.054,27.711 8.428,48.969 -0.626,21.259 -1.044,35.854 3.147,47.254 4.191,11.4 8.368,37.05 44.042,29.406 29.809,-6.388 45.256,-22.942 47.405,-50.555 1.525,-19.631 4.976,-16.729 5.194,-34.28 l 2.768,-8.309 c 3.192,-26.611 0.507,-35.196 18.872,-31.203 l 4.463,0.392 c 13.517,0.615 31.208,-2.174 41.591,-7 22.358,-10.376 35.618,-27.7 13.573,-23.148 z"
       id="path8" /><path
       inkscape:connector-curvature="0"
       d="m 215.866,286.484 c -1.385,49.516 0.348,99.377 5.193,111.495 4.848,12.118 15.223,35.688 50.9,28.045 29.806,-6.39 40.651,-18.756 45.357,-46.051 3.466,-20.082 10.148,-75.854 11.005,-87.281"
       id="path10" /><path
       inkscape:connector-curvature="0"
       d="m 173.104,38.256 c 0,0 -161.521,-66.016 -154.012,84.109 1.597,31.938 45.779,241.664 98.473,178.316 19.256,-23.166 36.671,-41.335 36.671,-41.335"
       id="path12" /><path
       inkscape:connector-curvature="0"
       d="m 260.349,26.207 c -5.591,1.753 89.848,-34.889 144.087,34.417 19.159,24.484 -3.043,124.519 -56.153,203.329"
       id="path14" /><path
       inkscape:connector-curvature="0"
       style="stroke-linejoin:bevel"
       d="m 348.282,263.953 c 0,0 3.461,17.036 53.764,6.653 22.04,-4.552 8.776,12.774 -13.577,23.155 -18.345,8.514 -59.474,10.696 -60.146,-1.069 -1.729,-30.355 21.647,-21.133 19.96,-28.739 -1.525,-6.85 -11.979,-13.573 -18.894,-30.338 -6.037,-14.633 -82.796,-126.849 21.287,-110.183 3.813,-0.789 -27.146,-99.002 -124.553,-100.599 -97.385,-1.597 -94.19,119.762 -94.19,119.762"
       id="path16-5" /><path
       inkscape:connector-curvature="0"
       d="m 188.604,274.334 c -13.577,15.166 -9.584,17.829 -36.723,23.417 -27.459,5.66 -11.326,15.733 -0.797,18.365 12.768,3.195 42.307,7.718 62.266,-20.229 6.078,-8.509 -0.036,-22.086 -8.385,-25.547 -4.034,-1.671 -9.428,-3.765 -16.361,3.994 z"
       id="path18-0" /><path
       inkscape:connector-curvature="0"
       d="m 187.715,274.069 c -1.368,-8.917 2.93,-19.528 7.536,-31.942 6.922,-18.626 22.893,-37.255 10.117,-96.339 -9.523,-44.029 -73.396,-9.163 -73.436,-3.193 -0.039,5.968 2.889,30.26 -1.067,58.548 -5.162,36.913 23.488,68.132 56.479,64.938"
       id="path20" /><path
       inkscape:connector-curvature="0"
       style="fill:#ffffff;stroke-width:4.15500021;stroke-linecap:butt;stroke-linejoin:miter"
       d="m 172.517,141.7 c -0.288,2.039 3.733,7.48 8.976,8.207 5.234,0.73 9.714,-3.522 9.998,-5.559 0.284,-2.039 -3.732,-4.285 -8.977,-5.015 -5.237,-0.731 -9.719,0.333 -9.996,2.367 z"
       id="path22" /><path
       inkscape:connector-curvature="0"
       style="fill:#ffffff;stroke-width:2.0775001;stroke-linecap:butt;stroke-linejoin:miter"
       d="m 331.941,137.543 c 0.284,2.039 -3.732,7.48 -8.976,8.207 -5.238,0.73 -9.718,-3.522 -10.005,-5.559 -0.277,-2.039 3.74,-4.285 8.979,-5.015 5.239,-0.73 9.718,0.333 10.002,2.368 z"
       id="path24" /><path
       inkscape:connector-curvature="0"
       d="m 350.676,123.432 c 0.863,15.994 -3.445,26.888 -3.988,43.914 -0.804,24.748 11.799,53.074 -7.191,81.435"
       id="path26" /><path
       inkscape:connector-curvature="0"
       style="stroke-width:3"
       d="M 0,60.232"
       id="path28" /></g></svg>