<?xml version="1.0" encoding="UTF-8" standalone="no"?>
<!-- Created with Inkscape (http://www.inkscape.org/) -->

<svg
   xmlns:dc="http://purl.org/dc/elements/1.1/"
   xmlns:cc="http://creativecommons.org/ns#"
   xmlns:rdf="http://www.w3.org/1999/02/22-rdf-syntax-ns#"
   xmlns:svg="http://www.w3.org/2000/svg"
   xmlns="http://www.w3.org/2000/svg"
   xmlns:sodipodi="http://sodipodi.sourceforge.net/DTD/sodipodi-0.dtd"
   xmlns:inkscape="http://www.inkscape.org/namespaces/inkscape"
   width="100"
   height="100"
   viewBox="0 0 26.458333 26.458334"
   id="svg2"
   version="1.1"
   inkscape:version="0.91+devel r"
   sodipodi:docname="thesis.svg">
  <defs
     id="defs4">
    <filter
       style="color-interpolation-filters:sRGB;"
       inkscape:label="Pixellize"
       id="filter5734"
       inkscape:menu="Pixel tools"
       inkscape:menu-tooltip="Reduce or remove antialiasing around shapes">
      <feColorMatrix
         in="SourceGraphic"
         type="hueRotate"
         values="280"
         result="colormatrix1"
         id="feColorMatrix5736" />
      <feColorMatrix
         type="matrix"
         values="0.5 0 0.5 0 0 0 1 0 0 0 0.5 0 0.5 0 0 0 0 0 1 0 "
         result="colormatrix2"
         id="feColorMatrix5738" />
      <feColorMatrix
         type="hueRotate"
         values="100"
         result="colormatrix3"
         id="feColorMatrix5740" />
      <feBlend
         in2="colormatrix3"
         mode="normal"
         result="blend1"
         id="feBlend5742" />
      <feColorMatrix
         type="matrix"
         values="2.5 -0.75 -0.75 0 0 -0.75 2.5 -0.75 0 0 -0.75 -0.75 2.5 0 0 0 0 0 1 0 "
         result="colormatrix4"
         id="feColorMatrix5744" />
      <feComposite
         in="colormatrix4"
         in2="blend1"
         operator="arithmetic"
         k2="0"
         result="composite1"
         id="feComposite5746" />
      <feBlend
         in2="blend1"
         mode="normal"
         result="fbSourceGraphic"
         id="feBlend5748" />
      <feColorMatrix
         result="fbSourceGraphicAlpha"
         in="fbSourceGraphic"
         values="0 0 0 -1 0 0 0 0 -1 0 0 0 0 -1 0 0 0 0 1 0"
         id="feColorMatrix5766" />
      <feColorMatrix
         id="feColorMatrix5768"
         in="fbSourceGraphic"
         type="hueRotate"
         values="280"
         result="colormatrix1" />
      <feColorMatrix
         id="feColorMatrix5770"
         type="matrix"
         values="0.5 0 0.5 0 0 0 1 0 0 0 0.5 0 0.5 0 0 0 0 0 1 0 "
         result="colormatrix2" />
      <feColorMatrix
         id="feColorMatrix5772"
         type="hueRotate"
         values="100"
         result="colormatrix3" />
      <feBlend
         id="feBlend5774"
         in2="colormatrix3"
         mode="normal"
         result="blend1" />
      <feColorMatrix
         id="feColorMatrix5776"
         type="matrix"
         values="2.5 -0.75 -0.75 0 0 -0.75 2.5 -0.75 0 0 -0.75 -0.75 2.5 0 0 0 0 0 1 0 "
         result="colormatrix4" />
      <feComposite
         id="feComposite5778"
         in2="blend1"
         in="colormatrix4"
         operator="arithmetic"
         k2="0"
         result="composite1" />
      <feBlend
         id="feBlend5780"
         in2="blend1"
         mode="normal"
         result="fbSourceGraphic" />
      <feColorMatrix
         result="fbSourceGraphicAlpha"
         in="fbSourceGraphic"
         values="0 0 0 -1 0 0 0 0 -1 0 0 0 0 -1 0 0 0 0 1 0"
         id="feColorMatrix5810" />
      <feColorMatrix
         id="feColorMatrix5812"
         values="1 0 0 0 0 0 1 0 0 0 0 0 1 0 0 0 0 0 1000 -500 "
         in="fbSourceGraphic" />
    </filter>
    <filter
       style="color-interpolation-filters:sRGB;"
       inkscape:label="Pixellize"
       id="filter5750"
       inkscape:menu="Pixel tools"
       inkscape:menu-tooltip="Reduce or remove antialiasing around shapes">
      <feColorMatrix
         in="SourceGraphic"
         type="hueRotate"
         values="280"
         result="colormatrix1"
         id="feColorMatrix5752" />
      <feColorMatrix
         type="matrix"
         values="0.5 0 0.5 0 0 0 1 0 0 0 0.5 0 0.5 0 0 0 0 0 1 0 "
         result="colormatrix2"
         id="feColorMatrix5754" />
      <feColorMatrix
         type="hueRotate"
         values="100"
         result="colormatrix3"
         id="feColorMatrix5756" />
      <feBlend
         in2="colormatrix3"
         mode="normal"
         result="blend1"
         id="feBlend5758" />
      <feColorMatrix
         type="matrix"
         values="2.5 -0.75 -0.75 0 0 -0.75 2.5 -0.75 0 0 -0.75 -0.75 2.5 0 0 0 0 0 1 0 "
         result="colormatrix4"
         id="feColorMatrix5760" />
      <feComposite
         in="colormatrix4"
         in2="blend1"
         operator="arithmetic"
         k2="0"
         result="composite1"
         id="feComposite5762" />
      <feBlend
         in2="blend1"
         mode="normal"
         result="fbSourceGraphic"
         id="feBlend5764" />
      <feColorMatrix
         result="fbSourceGraphicAlpha"
         in="fbSourceGraphic"
         values="0 0 0 -1 0 0 0 0 -1 0 0 0 0 -1 0 0 0 0 1 0"
         id="feColorMatrix5782" />
      <feColorMatrix
         id="feColorMatrix5784"
         in="fbSourceGraphic"
         type="hueRotate"
         values="280"
         result="colormatrix1" />
      <feColorMatrix
         id="feColorMatrix5786"
         type="matrix"
         values="0.5 0 0.5 0 0 0 1 0 0 0 0.5 0 0.5 0 0 0 0 0 1 0 "
         result="colormatrix2" />
      <feColorMatrix
         id="feColorMatrix5788"
         type="hueRotate"
         values="100"
         result="colormatrix3" />
      <feBlend
         id="feBlend5790"
         in2="colormatrix3"
         mode="normal"
         result="blend1" />
      <feColorMatrix
         id="feColorMatrix5792"
         type="matrix"
         values="2.5 -0.75 -0.75 0 0 -0.75 2.5 -0.75 0 0 -0.75 -0.75 2.5 0 0 0 0 0 1 0 "
         result="colormatrix4" />
      <feComposite
         id="feComposite5794"
         in2="blend1"
         in="colormatrix4"
         operator="arithmetic"
         k2="0"
         result="composite1" />
      <feBlend
         id="feBlend5796"
         in2="blend1"
         mode="normal"
         result="fbSourceGraphic" />
      <feColorMatrix
         result="fbSourceGraphicAlpha"
         in="fbSourceGraphic"
         values="0 0 0 -1 0 0 0 0 -1 0 0 0 0 -1 0 0 0 0 1 0"
         id="feColorMatrix5814" />
      <feColorMatrix
         id="feColorMatrix5816"
         values="1 0 0 0 0 0 1 0 0 0 0 0 1 0 0 0 0 0 1000 -500 "
         in="fbSourceGraphic" />
    </filter>
  </defs>
  <sodipodi:namedview
     id="base"
     pagecolor="#ffffff"
     bordercolor="#666666"
     borderopacity="1.0"
     inkscape:pageopacity="0.0"
     inkscape:pageshadow="2"
     inkscape:zoom="7.919596"
     inkscape:cx="46.993919"
     inkscape:cy="42.677048"
     inkscape:document-units="mm"
     inkscape:current-layer="layer1"
     showgrid="true"
     units="px"
     inkscape:snap-bbox="true"
     inkscape:object-nodes="true"
     inkscape:window-width="1920"
     inkscape:window-height="1016"
     inkscape:window-x="0"
     inkscape:window-y="27"
     inkscape:window-maximized="1">
    <inkscape:grid
       type="xygrid"
       id="grid4141" />
  </sodipodi:namedview>
  <metadata
     id="metadata7">
    <rdf:RDF>
      <cc:Work
         rdf:about="">
        <dc:format>image/svg+xml</dc:format>
        <dc:type
           rdf:resource="http://purl.org/dc/dcmitype/StillImage" />
        <dc:title></dc:title>
      </cc:Work>
    </rdf:RDF>
  </metadata>
  <g
     inkscape:label="Livello 1"
     inkscape:groupmode="layer"
     id="layer1"
     transform="translate(0,-270.54165)">
    <path
       style="fill:#000000;fill-opacity:1;fill-rule:evenodd;stroke:none;stroke-width:0.26458415px;stroke-linecap:butt;stroke-linejoin:miter;stroke-opacity:1"
       d="m 7.9375001,281.12498 -1.3229171,0 0,1.32293 1.3229171,0 z"
       id="path4188-8-4-1-04-750"
       inkscape:connector-curvature="0" />
    <path
       style="fill:#000000;fill-opacity:1;fill-rule:evenodd;stroke:none;stroke-width:0.26458415px;stroke-linecap:butt;stroke-linejoin:miter;stroke-opacity:1"
       d="m 9.2604167,279.80206 -1.3229171,0 0,1.32293 1.3229171,0 z"
       id="path4188-8-4-1-04-750-7"
       inkscape:connector-curvature="0" />
    <path
       style="fill:#000000;fill-opacity:1;fill-rule:evenodd;stroke:none;stroke-width:0.26458415px;stroke-linecap:butt;stroke-linejoin:miter;stroke-opacity:1"
       d="m 10.583333,278.47915 -1.3229167,0 0,1.32293 1.3229167,0 z"
       id="path4188-8-4-1-04-750-9"
       inkscape:connector-curvature="0" />
    <path
       style="fill:#000000;fill-opacity:1;fill-rule:evenodd;stroke:none;stroke-width:0.26458415px;stroke-linecap:butt;stroke-linejoin:miter;stroke-opacity:1"
       d="m 11.90625,277.15623 -1.322917,0 0,1.32293 1.322917,0 z"
       id="path4188-8-4-1-04-750-79"
       inkscape:connector-curvature="0" />
    <path
       style="fill:#000000;fill-opacity:1;fill-rule:evenodd;stroke:none;stroke-width:0.26458415px;stroke-linecap:butt;stroke-linejoin:miter;stroke-opacity:1"
       d="m 13.229167,275.83331 -1.322917,0 0,1.32293 1.322917,0 z"
       id="path4188-8-4-1-04-750-4"
       inkscape:connector-curvature="0" />
    <path
       style="fill:#000000;fill-opacity:1;fill-rule:evenodd;stroke:none;stroke-width:0.26458415px;stroke-linecap:butt;stroke-linejoin:miter;stroke-opacity:1"
       d="m 14.552084,274.5104 -1.322917,0 0,1.32293 1.322917,0 z"
       id="path4188-8-4-1-04-750-2"
       inkscape:connector-curvature="0" />
    <path
       style="fill:#000000;fill-opacity:1;fill-rule:evenodd;stroke:none;stroke-width:0.26458415px;stroke-linecap:butt;stroke-linejoin:miter;stroke-opacity:1"
       d="m 15.875,273.18748 -1.322917,0 0,1.32293 1.322917,0 z"
       id="path4188-8-4-1-04-750-1"
       inkscape:connector-curvature="0" />
    <path
       style="fill:#000000;fill-opacity:1;fill-rule:evenodd;stroke:none;stroke-width:0.26458415px;stroke-linecap:butt;stroke-linejoin:miter;stroke-opacity:1"
       d="m 17.197917,273.18748 -1.322917,0 0,1.32293 1.322917,0 z"
       id="path4188-8-4-1-04-750-77"
       inkscape:connector-curvature="0" />
    <path
       style="fill:#000000;fill-opacity:1;fill-rule:evenodd;stroke:none;stroke-width:0.26458415px;stroke-linecap:butt;stroke-linejoin:miter;stroke-opacity:1"
       d="m 18.520834,273.18748 -1.322917,0 0,1.32293 1.322917,0 z"
       id="path4188-8-4-1-04-750-46"
       inkscape:connector-curvature="0" />
    <path
       style="fill:#000000;fill-opacity:1;fill-rule:evenodd;stroke:none;stroke-width:0.26458415px;stroke-linecap:butt;stroke-linejoin:miter;stroke-opacity:1"
       d="m 19.84375,274.5104 -1.322917,0 0,1.32293 1.322917,0 z"
       id="path4188-8-4-1-04-750-6"
       inkscape:connector-curvature="0" />
    <path
       style="fill:#000000;fill-opacity:1;fill-rule:evenodd;stroke:none;stroke-width:0.26458415px;stroke-linecap:butt;stroke-linejoin:miter;stroke-opacity:1"
       d="m 21.166667,275.83331 -1.322917,0 0,1.32293 1.322917,0 z"
       id="path4188-8-4-1-04-750-45"
       inkscape:connector-curvature="0" />
    <path
       style="fill:#000000;fill-opacity:1;fill-rule:evenodd;stroke:none;stroke-width:0.26458415px;stroke-linecap:butt;stroke-linejoin:miter;stroke-opacity:1"
       d="m 22.489584,277.15623 -1.322917,0 0,1.32293 1.322917,0 z"
       id="path4188-8-4-1-04-750-3"
       inkscape:connector-curvature="0" />
    <path
       style="fill:#000000;fill-opacity:1;fill-rule:evenodd;stroke:none;stroke-width:0.26458415px;stroke-linecap:butt;stroke-linejoin:miter;stroke-opacity:1"
       d="m 23.8125,278.47915 -1.322917,0 0,1.32293 1.322917,0 z"
       id="path4188-8-4-1-04-750-25"
       inkscape:connector-curvature="0" />
    <path
       style="fill:#000000;fill-opacity:1;fill-rule:evenodd;stroke:none;stroke-width:0.26458415px;stroke-linecap:butt;stroke-linejoin:miter;stroke-opacity:1"
       d="m 25.135417,279.80206 -1.322917,0 0,1.32293 1.322917,0 z"
       id="path4188-8-4-1-04-750-773"
       inkscape:connector-curvature="0" />
    <path
       style="fill:#000000;fill-opacity:1;fill-rule:evenodd;stroke:none;stroke-width:0.26458415px;stroke-linecap:butt;stroke-linejoin:miter;stroke-opacity:1"
       d="m 25.135417,281.12498 -1.322917,0 0,1.32293 1.322917,0 z"
       id="path4188-8-4-1-04-750-5"
       inkscape:connector-curvature="0" />
    <path
       style="fill:#000000;fill-opacity:1;fill-rule:evenodd;stroke:none;stroke-width:0.26458415px;stroke-linecap:butt;stroke-linejoin:miter;stroke-opacity:1"
       d="m 25.135417,282.4479 -1.322917,0 0,1.32293 1.322917,0 z"
       id="path4188-8-4-1-04-750-17"
       inkscape:connector-curvature="0" />
    <path
       style="fill:#000000;fill-opacity:1;fill-rule:evenodd;stroke:none;stroke-width:0.26458415px;stroke-linecap:butt;stroke-linejoin:miter;stroke-opacity:1"
       d="m 25.135417,283.77081 -1.322917,0 0,1.32293 1.322917,0 z"
       id="path4188-8-4-1-04-750-99"
       inkscape:connector-curvature="0" />
    <path
       style="fill:#000000;fill-opacity:1;fill-rule:evenodd;stroke:none;stroke-width:0.26458415px;stroke-linecap:butt;stroke-linejoin:miter;stroke-opacity:1"
       d="m 23.8125,285.09373 -1.322917,0 0,1.32293 1.322917,0 z"
       id="path4188-8-4-1-04-750-68"
       inkscape:connector-curvature="0" />
    <path
       style="fill:#000000;fill-opacity:1;fill-rule:evenodd;stroke:none;stroke-width:0.26458415px;stroke-linecap:butt;stroke-linejoin:miter;stroke-opacity:1"
       d="m 22.489584,286.41665 -1.322917,0 0,1.32293 1.322917,0 z"
       id="path4188-8-4-1-04-750-57"
       inkscape:connector-curvature="0" />
    <path
       style="fill:#000000;fill-opacity:1;fill-rule:evenodd;stroke:none;stroke-width:0.26458415px;stroke-linecap:butt;stroke-linejoin:miter;stroke-opacity:1"
       d="m 21.166667,287.73956 -1.322917,0 0,1.32293 1.322917,0 z"
       id="path4188-8-4-1-04-750-0"
       inkscape:connector-curvature="0" />
    <path
       style="fill:#000000;fill-opacity:1;fill-rule:evenodd;stroke:none;stroke-width:0.26458415px;stroke-linecap:butt;stroke-linejoin:miter;stroke-opacity:1"
       d="m 19.84375,289.06248 -1.322917,0 0,1.32293 1.322917,0 z"
       id="path4188-8-4-1-04-750-40"
       inkscape:connector-curvature="0" />
    <path
       style="fill:#000000;fill-opacity:1;fill-rule:evenodd;stroke:none;stroke-width:0.26458415px;stroke-linecap:butt;stroke-linejoin:miter;stroke-opacity:1"
       d="m 18.520834,290.3854 -1.322917,0 0,1.32293 1.322917,0 z"
       id="path4188-8-4-1-04-750-14"
       inkscape:connector-curvature="0" />
    <path
       style="fill:#000000;fill-opacity:1;fill-rule:evenodd;stroke:none;stroke-width:0.26458415px;stroke-linecap:butt;stroke-linejoin:miter;stroke-opacity:1"
       d="m 17.197917,291.70831 -1.322917,0 0,1.32293 1.322917,0 z"
       id="path4188-8-4-1-04-750-95"
       inkscape:connector-curvature="0" />
    <path
       style="fill:#000000;fill-opacity:1;fill-rule:evenodd;stroke:none;stroke-width:0.26458415px;stroke-linecap:butt;stroke-linejoin:miter;stroke-opacity:1"
       d="m 15.875,293.03123 -1.322917,0 0,1.32293 1.322917,0 z"
       id="path4188-8-4-1-04-750-62"
       inkscape:connector-curvature="0" />
    <path
       style="fill:#000000;fill-opacity:1;fill-rule:evenodd;stroke:none;stroke-width:0.26458415px;stroke-linecap:butt;stroke-linejoin:miter;stroke-opacity:1"
       d="m 14.552084,294.35415 -1.322917,0 0,1.32293 1.322917,0 z"
       id="path4188-8-4-1-04-750-43"
       inkscape:connector-curvature="0" />
    <path
       style="fill:#000000;fill-opacity:1;fill-rule:evenodd;stroke:none;stroke-width:0.26458415px;stroke-linecap:butt;stroke-linejoin:miter;stroke-opacity:1"
       d="m 13.229167,294.35415 -1.322917,0 0,1.32293 1.322917,0 z"
       id="path4188-8-4-1-04-750-621"
       inkscape:connector-curvature="0" />
    <path
       style="fill:#000000;fill-opacity:1;fill-rule:evenodd;stroke:none;stroke-width:0.26458415px;stroke-linecap:butt;stroke-linejoin:miter;stroke-opacity:1"
       d="m 11.90625,294.35415 -1.322917,0 0,1.32293 1.322917,0 z"
       id="path4188-8-4-1-04-750-38"
       inkscape:connector-curvature="0" />
    <path
       style="fill:#000000;fill-opacity:1;fill-rule:evenodd;stroke:none;stroke-width:0.26458415px;stroke-linecap:butt;stroke-linejoin:miter;stroke-opacity:1"
       d="m 10.583333,294.35415 -1.3229167,0 0,1.32293 1.3229167,0 z"
       id="path4188-8-4-1-04-750-453"
       inkscape:connector-curvature="0" />
    <path
       style="fill:#000000;fill-opacity:1;fill-rule:evenodd;stroke:none;stroke-width:0.26458415px;stroke-linecap:butt;stroke-linejoin:miter;stroke-opacity:1"
       d="m 9.2604167,293.03123 -1.3229171,0 0,1.32293 1.3229171,0 z"
       id="path4188-8-4-1-04-750-34"
       inkscape:connector-curvature="0" />
    <path
       style="fill:#000000;fill-opacity:1;fill-rule:evenodd;stroke:none;stroke-width:0.26458415px;stroke-linecap:butt;stroke-linejoin:miter;stroke-opacity:1"
       d="m 7.9375001,291.70831 -1.3229171,0 0,1.32293 1.3229171,0 z"
       id="path4188-8-4-1-04-750-61"
       inkscape:connector-curvature="0" />
    <path
       style="fill:#000000;fill-opacity:1;fill-rule:evenodd;stroke:none;stroke-width:0.26458415px;stroke-linecap:butt;stroke-linejoin:miter;stroke-opacity:1"
       d="m 6.6145834,290.3854 -1.3229171,0 0,1.32293 1.3229171,0 z"
       id="path4188-8-4-1-04-750-55"
       inkscape:connector-curvature="0" />
    <path
       style="fill:#000000;fill-opacity:1;fill-rule:evenodd;stroke:none;stroke-width:0.26458415px;stroke-linecap:butt;stroke-linejoin:miter;stroke-opacity:1"
       d="m 5.291666,287.73956 -1.3229171,0 0,1.32293 1.3229171,0 z"
       id="path4188-8-4-1-04-750-11"
       inkscape:connector-curvature="0" />
    <path
       style="fill:#000000;fill-opacity:1;fill-rule:evenodd;stroke:none;stroke-width:0.26458415px;stroke-linecap:butt;stroke-linejoin:miter;stroke-opacity:1"
       d="m 5.2916667,286.41665 -1.3229171,0 0,1.32293 1.3229171,0 z"
       id="path4188-8-4-1-04-750-28"
       inkscape:connector-curvature="0" />
    <path
       style="fill:#000000;fill-opacity:1;fill-rule:evenodd;stroke:none;stroke-width:0.26458415px;stroke-linecap:butt;stroke-linejoin:miter;stroke-opacity:1"
       d="m 5.2916667,285.09373 -1.3229171,0 0,1.32293 1.3229171,0 z"
       id="path4188-8-4-1-04-750-16"
       inkscape:connector-curvature="0" />
    <path
       style="fill:#000000;fill-opacity:1;fill-rule:evenodd;stroke:none;stroke-width:0.26458415px;stroke-linecap:butt;stroke-linejoin:miter;stroke-opacity:1"
       d="m 5.2916667,283.77081 -1.3229171,0 0,1.32293 1.3229171,0 z"
       id="path4188-8-4-1-04-750-04"
       inkscape:connector-curvature="0" />
    <path
       style="fill:#000000;fill-opacity:1;fill-rule:evenodd;stroke:none;stroke-width:0.26458415px;stroke-linecap:butt;stroke-linejoin:miter;stroke-opacity:1"
       d="m 6.6145834,282.4479 -1.3229171,0 0,1.32293 1.3229171,0 z"
       id="path4188-8-4-1-04-750-02"
       inkscape:connector-curvature="0" />
    <path
       style="fill:#ffde75;fill-opacity:1;fill-rule:evenodd;stroke:none;stroke-width:0.26458415px;stroke-linecap:butt;stroke-linejoin:miter;stroke-opacity:1"
       d="m 23.812501,279.80206 -1.322917,0 0,1.32293 1.322917,0 z"
       id="path4188-8-4-1-04-750-98-6"
       inkscape:connector-curvature="0" />
    <path
       style="fill:#91aac3;fill-opacity:1;fill-rule:evenodd;stroke:none;stroke-width:0.26458415px;stroke-linecap:butt;stroke-linejoin:miter;stroke-opacity:1"
       d="m 30.427084,282.44789 -1.322917,0 0,1.32293 1.322917,0 z"
       id="path4188-8-4-1-04-750-98-47"
       inkscape:connector-curvature="0" />
    <path
       style="fill:#b78b00;fill-rule:evenodd;stroke:none;stroke-width:0.26458332px;stroke-linecap:butt;stroke-linejoin:miter;stroke-opacity:1;fill-opacity:1"
       d="m 5.2916666,283.77082 0,2.64583 1.3229166,0 0,1.32292 1.3229167,0 0,1.32291 1.3229167,0 0,1.32292 5.2916664,0 0,-1.32292 1.322917,0 0,-1.32291 1.322916,0 0,-1.32292 1.322917,0 0,-1.32292 1.322917,0 0,-1.32291 1.322916,0 0,-2.64584 1.322917,0 0,-2.64583 -1.322917,0 0,-1.32292 -1.322916,0 0,-1.32291 -1.322917,0 0,-1.32292 -3.96875,0 0,1.32292 -1.322916,0 0,1.32291 -1.322917,0 0,1.32292 -1.322917,0 0,1.32292 -1.3229164,0 0,1.32291 -1.3229167,0 0,1.32292 -1.3229167,0 0,1.32292 z"
       id="path4376"
       inkscape:connector-curvature="0" />
    <path
       style="fill:#7c5f00;fill-opacity:1;fill-rule:evenodd;stroke:none;stroke-width:0.26458415px;stroke-linecap:butt;stroke-linejoin:miter;stroke-opacity:1"
       d="m 17.197917,283.77081 -1.322917,0 0,1.32293 1.322917,0 z"
       id="path4188-8-4-1-04-750-98-036"
       inkscape:connector-curvature="0" />
    <path
       style="fill:#0067b9;fill-opacity:1;fill-rule:evenodd;stroke:none;stroke-width:0.26458415px;stroke-linecap:butt;stroke-linejoin:miter;stroke-opacity:1"
       d="m 15.875001,282.4479 -1.322917,0 0,1.32293 1.322917,0 z"
       id="path4188-8-4-1-04-750-98-869"
       inkscape:connector-curvature="0" />
    <path
       style="fill:#7c5f00;fill-opacity:1;fill-rule:evenodd;stroke:none;stroke-width:0.26458415px;stroke-linecap:butt;stroke-linejoin:miter;stroke-opacity:1"
       d="m 15.875001,282.4479 -1.322917,0 0,1.32293 1.322917,0 z"
       id="path4188-8-4-1-04-750-98-103"
       inkscape:connector-curvature="0" />
    <path
       style="fill:#05518f;fill-opacity:1;fill-rule:evenodd;stroke:none;stroke-width:0.26458415px;stroke-linecap:butt;stroke-linejoin:miter;stroke-opacity:1"
       d="m 29.104167,286.41665 -1.322917,0 0,1.32293 1.322917,0 z"
       id="path4188-8-4-1-04-750-98-005"
       inkscape:connector-curvature="0" />
    <path
       style="fill:#7c5f00;fill-opacity:1;fill-rule:evenodd;stroke:none;stroke-width:0.26458415px;stroke-linecap:butt;stroke-linejoin:miter;stroke-opacity:1"
       d="m 14.552084,281.12498 -1.322917,0 0,1.32293 1.322917,0 z"
       id="path4188-8-4-1-04-750-98-601"
       inkscape:connector-curvature="0" />
    <path
       style="fill:#7c5f00;fill-opacity:1;fill-rule:evenodd;stroke:none;stroke-width:0.26458415px;stroke-linecap:butt;stroke-linejoin:miter;stroke-opacity:1"
       d="m 13.229167,279.80206 -1.322917,0 0,1.32293 1.322917,0 z"
       id="path4188-8-4-1-04-750-98-285"
       inkscape:connector-curvature="0" />
    <path
       style="fill:#b78b00;fill-opacity:1;fill-rule:evenodd;stroke:none;stroke-width:0.26458332px;stroke-linecap:butt;stroke-linejoin:miter;stroke-opacity:1"
       d="m 6.6145833,291.70832 0,-1.32292 1.3229167,0 0,1.32292 1.3229167,0 0,1.32291 5.2916663,0 0,-1.32291 1.322917,0 0,-1.32292 1.322916,0 0,-1.32292 1.322917,0 0,-1.32291 1.322917,0 0,-1.32292 1.322916,0 0,-1.32292 1.322917,0 0,-1.32291 1.322917,0 0,1.32291 -1.322917,0 0,1.32292 -1.322917,0 0,1.32292 -1.322916,0 0,1.32291 -1.322917,0 0,1.32292 -1.322917,0 0,1.32292 -1.322916,0 0,1.32291 -1.322917,0 0,1.32292 -5.2916663,0 0,-1.32292 -1.3229167,0 0,-1.32291 z"
       id="path4368"
       inkscape:connector-curvature="0" />
    <path
       style="fill:#91aac3;fill-rule:evenodd;stroke:none;stroke-width:0.26458332px;stroke-linecap:butt;stroke-linejoin:miter;stroke-opacity:1;fill-opacity:1"
       d="m 6.6145832,290.3854 0,-1.32292 1.3229167,0 0,1.32292 1.3229167,0 0,1.32292 5.2916664,0 0,-1.32292 1.322917,0 0,-1.32292 1.322916,0 0,-1.32291 1.322917,0 0,-1.32292 1.322917,0 0,-1.32292 1.322916,0 0,-1.32291 1.322917,0 0,-2.64584 1.322917,0 0,2.64584 -1.322917,0 0,1.32291 -1.322917,0 0,1.32292 -1.322916,0 0,1.32292 -1.322917,0 0,1.32291 -1.322917,0 0,1.32292 -1.322916,0 0,1.32292 -1.322917,0 0,1.32291 -5.2916664,0 0,-1.32291 -1.3229167,0 0,-1.32292 z"
       id="path4370"
       inkscape:connector-curvature="0" />
    <path
       style="fill:#ffde75;fill-rule:evenodd;stroke:none;stroke-width:0.26458332px;stroke-linecap:butt;stroke-linejoin:miter;stroke-opacity:1;fill-opacity:1"
       d="m 22.489583,281.12498 0,2.64584 -1.322917,0 0,1.32291 -1.322916,0 0,1.32292 -1.322917,0 0,1.32292 -1.322917,0 0,1.32291 -1.322916,0 0,1.32292 -1.322917,0 0,1.32292 -5.2916664,0 0,-1.32292 -1.3229167,0 0,-1.32292 -1.3229167,0 0,-1.32291 -1.3229166,0 0,-1.32292 1.3229166,0 0,1.32292 1.3229167,0 0,1.32291 1.3229167,0 0,1.32292 5.2916664,0 0,-1.32292 1.322917,0 0,-1.32291 1.322916,0 0,-1.32292 1.322917,0 0,-1.32292 1.322917,0 0,-1.32291 1.322916,0 0,-2.64584 c 0,0 1.322917,0 1.322917,0 z"
       id="path4372"
       inkscape:connector-curvature="0" />
    <path
       style="fill:#7c5f00;fill-opacity:1;fill-rule:evenodd;stroke:none;stroke-width:0.26458332px;stroke-linecap:butt;stroke-linejoin:miter;stroke-opacity:1"
       d="m 19.84375,282.4479 -2.645834,0 0,-1.32292 -1.322916,0 0,-1.32291 -1.322917,0 0,-2.64584 2.645833,0 0,1.32292 1.322917,0 0,1.32292 1.322917,0 z"
       id="path4374"
       inkscape:connector-curvature="0" />
    <path
       style="fill:#5d1700;fill-opacity:1;fill-rule:evenodd;stroke:none;stroke-width:0.26458332px;stroke-linecap:butt;stroke-linejoin:miter;stroke-opacity:1"
       d="m 6.6145833,290.3854 0,-2.64583 -1.3229166,0 0,1.32291 -1.3229166,0 0,1.32292 -1.3229167,0 0,1.32292 2.6458333,0 0,-1.32292 z"
       id="path4378"
       inkscape:connector-curvature="0" />
  </g>
</svg>
