<?xml version="1.0" encoding="UTF-8" standalone="no"?>
<svg
   xmlns:dc="http://purl.org/dc/elements/1.1/"
   xmlns:cc="http://creativecommons.org/ns#"
   xmlns:rdf="http://www.w3.org/1999/02/22-rdf-syntax-ns#"
   xmlns:svg="http://www.w3.org/2000/svg"
   xmlns="http://www.w3.org/2000/svg"
   xmlns:sodipodi="http://sodipodi.sourceforge.net/DTD/sodipodi-0.dtd"
   xmlns:inkscape="http://www.inkscape.org/namespaces/inkscape"
   width="200"
   height="200"
   viewBox="0 0 200 200"
   id="svg2"
   version="1.1"
   inkscape:version="0.91+devel r"
   sodipodi:docname="networks.svg">
  <metadata
     id="metadata10">
    <rdf:RDF>
      <cc:Work
         rdf:about="">
        <dc:format>image/svg+xml</dc:format>
        <dc:type
           rdf:resource="http://purl.org/dc/dcmitype/StillImage" />
        <dc:title></dc:title>
      </cc:Work>
    </rdf:RDF>
  </metadata>
  <defs
     id="defs8" />
  <sodipodi:namedview
     pagecolor="#ffffff"
     bordercolor="#666666"
     borderopacity="1"
     objecttolerance="10"
     gridtolerance="10"
     guidetolerance="10"
     inkscape:pageopacity="0"
     inkscape:pageshadow="2"
     inkscape:window-width="1920"
     inkscape:window-height="1016"
     id="namedview6"
     showgrid="false"
     inkscape:zoom="1.84375"
     inkscape:cx="-8.1594852"
     inkscape:cy="-4.3512138"
     inkscape:window-x="0"
     inkscape:window-y="27"
     inkscape:window-maximized="1"
     inkscape:current-layer="svg2" />
  <path
     id="path4145"
     d="m 98.510376,44.032824 c -31.274594,0 -56.605598,25.330992 -56.605598,56.605596 0,31.27459 25.331004,56.60559 56.605598,56.60559 31.274594,0 56.605584,-25.331 56.605584,-56.60559 0,-31.274604 -25.33099,-56.605596 -56.605584,-56.605596 z m 0,14.151386 c 4.669964,0 9.056894,1.273627 13.302314,2.68877 -2.97179,2.830287 -6.36813,5.37754 -5.80207,7.924793 0.56606,2.547254 9.76446,1.839669 9.76446,7.075693 0,3.82088 -5.94359,4.95299 -1.83968,9.339913 4.95299,4.95299 -9.05689,13.868374 -9.33992,20.378031 -0.42455,11.74564 11.88717,13.72686 21.65163,13.72686 5.94359,0 7.50025,2.83026 7.07571,6.22661 -7.64176,10.89657 -20.66105,17.68926 -34.953958,17.68926 -5.37753,0 -10.33052,-1.27365 -15.000484,-3.11333 3.113308,-6.22661 -3.962389,-18.53833 -10.613548,-22.50072 -3.254823,-3.25481 -10.189009,-1.98119 -14.151401,-3.53785 -1.273624,-3.82088 -2.54725,-7.64176 -2.688765,-11.88716 0.424542,-0.70759 1.132112,-1.27363 2.264224,-1.27363 2.688766,0 6.368129,5.37752 8.349325,4.81148 2.547253,-0.56607 -10.472034,-18.538341 -4.386932,-22.076188 2.830279,-1.698177 8.490838,5.519033 6.651156,-2.264243 -1.698167,-7.21721 5.094505,-3.962372 9.339925,-5.802066 3.679363,-1.55666 6.368129,-5.802067 1.839682,-8.34932 -0.849084,-0.42455 -1.839682,-1.415144 -3.113308,-2.68877 6.36813,-3.82088 13.726857,-6.226617 21.65164,-6.226617 z m 32.689734,15.425036 c 2.54725,3.113296 4.52845,6.509626 6.22661,10.188989 0,0.141639 0,0.283034 0,0.42455 -0.56606,0.990594 -1.55666,1.556661 -3.11331,3.113321 -3.96239,3.962372 -4.52844,-2.971804 -6.22662,-4.386947 -1.83968,-1.698177 -8.49083,0.283033 -9.33992,-1.83967 -0.99059,-2.547253 7.0757,-5.943607 12.45324,-7.500243 z"
     inkscape:connector-curvature="0"
     style="fill:#000000;fill-opacity:1;stroke-width:14.15139771" />
  <ellipse
     style="color:#000000;display:inline;overflow:visible;visibility:visible;opacity:1;fill:none;fill-opacity:1;fill-rule:nonzero;stroke:#000000;stroke-width:6.27768803;stroke-linecap:butt;stroke-linejoin:miter;stroke-miterlimit:4;stroke-dasharray:none;stroke-dashoffset:0;stroke-opacity:1;marker:none;enable-background:accumulate"
     id="path4154"
     cx="58.027012"
     cy="128.96848"
     rx="95.122932"
     ry="38.304543"
     transform="rotate(-20.775505)" />
  <ellipse
     style="color:#000000;display:inline;overflow:visible;visibility:visible;opacity:1;fill:none;fill-opacity:1;fill-rule:nonzero;stroke:#000000;stroke-width:6.27768803;stroke-linecap:butt;stroke-linejoin:miter;stroke-miterlimit:4;stroke-dasharray:none;stroke-dashoffset:0;stroke-opacity:1;marker:none;enable-background:accumulate"
     id="path4154-1"
     cx="138.66327"
     cy="-15.913849"
     rx="95.122932"
     ry="38.304543"
     transform="rotate(52.310657)" />
</svg>
